<?xml version="1.0" standalone="no"?>
<!DOCTYPE svg PUBLIC "-//W3C//DTD SVG 20010904//EN"
 "http://www.w3.org/TR/2001/REC-SVG-20010904/DTD/svg10.dtd">
<svg version="1.0" xmlns="http://www.w3.org/2000/svg"
 width="170.000000pt" height="103.000000pt" viewBox="0 0 170.000000 103.000000"
 preserveAspectRatio="xMidYMid meet">

<g transform="translate(0.000000,103.000000) scale(0.100000,-0.100000)"
fill="#000000" stroke="none">
<path d="M152 593 c5 -457 9 -495 58 -555 19 -23 19 -21 20 473 l0 497 -22 6
c-13 3 -31 6 -41 6 -18 0 -18 -19 -15 -427z"/>
<path d="M300 653 c1 -369 9 -484 40 -544 15 -28 70 -89 82 -89 4 0 8 57 8
127 l0 126 31 -61 c49 -100 134 -156 273 -183 82 -15 481 -12 521 5 64 27 75
60 75 234 l0 152 180 -90 c99 -49 182 -90 185 -90 3 0 5 126 5 280 0 154 -2
280 -5 280 -3 0 -86 -41 -185 -90 l-180 -90 0 152 c0 136 -2 157 -20 186 -36
59 -56 62 -395 62 l-305 0 0 -95 0 -94 43 15 c54 19 170 19 226 0 86 -31 153
-93 201 -186 35 -67 40 -195 10 -272 -29 -79 -96 -150 -178 -190 -60 -30 -76
-33 -152 -33 -108 0 -175 30 -249 110 -89 98 -94 124 -99 458 l-4 287 -54 0
-54 0 0 -367z"/>
<path d="M72 994 c-51 -36 -52 -43 -52 -476 0 -387 1 -404 20 -436 11 -18 36
-40 55 -48 36 -15 99 -19 93 -6 -53 101 -58 156 -58 595 0 364 -1 387 -18 387
-10 0 -28 -7 -40 -16z"/>
<path d="M606 718 c-10 -38 -7 -385 4 -412 5 -15 17 -26 27 -26 18 0 256 125
346 182 50 32 59 55 30 80 -37 32 -352 198 -376 198 -17 0 -26 -7 -31 -22z"/>
</g>
</svg>
